<svg xmlns="http://www.w3.org/2000/svg" viewBox="0 0 278 278"><defs><style>.cls-1{isolation:isolate;}.cls-2{fill:#00613c;fill-rule:evenodd;}</style></defs><title>wings_svg</title><g id="Shape_1" data-name="Shape 1" class="cls-1"><g id="Shape_1-2" data-name="Shape 1"><path class="cls-2" d="M151,12C74.36,12,12,74.36,12,151S74.36,290,151,290s139-62.35,139-139S227.65,12,151,12Zm0,268.35A129.34,129.34,0,1,1,280.35,151,129.49,129.49,0,0,1,151,280.35Zm0-249.28A119.93,119.93,0,1,0,270.93,151,119.93,119.93,0,0,0,151,31.07ZM73.34,74c2.59,4.05,12.84,11.59,20,15.12l42.24,21.11A35.68,35.68,0,0,0,141,126.91L89.5,102.47C80,98,72.61,87.3,73.34,74Zm6,26.52,60.41,28.6c.24,2.1,1.29,8,6.84,14.56L86.4,119.12C76.81,115.17,68.55,106.56,68,92.3,73.89,97.59,76.11,98.9,79.35,100.49Zm139.81,74.46,19.72,8.1a14.21,14.21,0,0,1,.12,1.85,13.32,13.32,0,0,1-.49,3.59l-19.8-7a7.89,7.89,0,0,1-.81-4.31A3.78,3.78,0,0,1,219.15,174.95Zm-.18-5.33a5.23,5.23,0,0,1,1.26-2.51l8.1,3.85c3.81,1.89,6.52,3.84,8.14,5.95a11.53,11.53,0,0,1,2.15,4.41l-19.15-7.84A6.61,6.61,0,0,1,219,169.61Zm-23.74,54.66-21.87-1.38,0,0c-.65-.67-2.47-2.93-2.27-4.67a2.93,2.93,0,0,1,1.46-2l22.64,2.47a6.91,6.91,0,0,0-.53,2.1A8.36,8.36,0,0,0,195.23,224.27Zm-24.3-1.56-31.66-2.05c.85-3.39,4.25-7.69,7.94-7.28l23,2.52a4.45,4.45,0,0,0-.72,2A7.6,7.6,0,0,0,170.94,222.71Zm-21.74-11.19c.48-2.66,4-7.64,7.61-7l19.31,3.23a5.09,5.09,0,0,0-1,3.18,7,7,0,0,0,1.29,3.79Zm67.39-30.8-28.1-9.94c-1-2.25-1.37-4.15-.93-5.59a3.94,3.94,0,0,1,2-2.36l27.74,11.38a5.79,5.79,0,0,0-1,2.46A9.45,9.45,0,0,0,216.58,180.72Zm-1.31,8.33-26.64-8c-.89-1.59-1.86-4.05-1.54-5.95a3.82,3.82,0,0,1,1.7-2.51L216,182.14a5.85,5.85,0,0,0-1.21,2.72A8.3,8.3,0,0,0,215.27,189.06Zm-1.57,8.13-24.7-6c-.81-.82-2.55-3.13-2.35-5.28a4.33,4.33,0,0,1,2.11-3.13l25.1,7.54a4.29,4.29,0,0,0-.73,1.74A9.15,9.15,0,0,0,213.7,197.19ZM210.82,204l-24.62-4.66.08-.15c-.64-.51-2.26-2.26-2.26-4.1a4.61,4.61,0,0,1,1.74-3.18L211,198a4.92,4.92,0,0,0-.56,1.39A8.31,8.31,0,0,0,210.82,204Zm-29.55-.47a4.31,4.31,0,0,1,1.86-3.23l22.56,4.25a5,5,0,0,0-.61,1.79,8.68,8.68,0,0,0,.65,4.72l-22-3.79.08-.15C183.13,206.75,181.3,205.26,181.27,203.57ZM186,164.38a9.15,9.15,0,0,0,.32,5.64l-33.48-11.84c-5.3-3.69-7.45-10.46-8.22-13.74L187.39,162A5.21,5.21,0,0,0,186,164.38Zm.72,7.44a6.09,6.09,0,0,0-1.25,2.82,10.82,10.82,0,0,0,.89,5.69l-29.92-9c-6.16-4.92-8-10.2-8.59-13.12Zm-.16,10.25a6.08,6.08,0,0,0-1.58,3.59,8.11,8.11,0,0,0,1.21,4.82l-24.95-6.1a22.64,22.64,0,0,1-8.46-12.46Zm-2.87,9.35a5.77,5.77,0,0,0-1.3,3.69,6.88,6.88,0,0,0,1.13,3.74L168.28,196l-1.58-.1c-5.38-3.79-6.68-8.15-7-10.31ZM165.8,197.1l15.06,2.82a5.43,5.43,0,0,0-.16,6.87l-21.46-3.69C159.52,200.53,162.67,196.49,165.8,197.1ZM179,215l.08-.16c-.61-.51-2.23-2.26-2.23-4a3.47,3.47,0,0,1,1.38-2.67l-.07-.1,23.89,4a6.5,6.5,0,0,0-.61,1.79,8.12,8.12,0,0,0,.36,3.74Zm17.37,5.85a3.61,3.61,0,0,1,.88-2l13.49,1.43L206.2,225l-9-.56A6.7,6.7,0,0,1,196.36,220.88Zm7.37-3a6.8,6.8,0,0,1-.65-3.54,3.42,3.42,0,0,1,1-1.9l12.15,2-4.17,4.36Zm4.1-6.41a8.09,8.09,0,0,1-1.13-4.62,2.62,2.62,0,0,1,1.17-1.79l14.78,2.77-5.14,5.33Zm5.06-7a7.24,7.24,0,0,1-.85-4.36,2.41,2.41,0,0,1,1.05-1.49L228,202.22l-4.09,4.3Zm3-6.72c-.53-1.08-1.5-3.43-1.1-5.13a2.65,2.65,0,0,1,1.14-1.69l17.9,5.38L229.24,201Zm1.7-7.95a7.56,7.56,0,0,1-1.09-4.46,4,4,0,0,1,1.62-2.46l20,7a.64.64,0,0,1-.08.26,14.46,14.46,0,0,1-3,4.87ZM217.32,169a9,9,0,0,0,.08,3.59l-28.1-11.48a7.73,7.73,0,0,1-.77-5.23,4.64,4.64,0,0,1,2.27-2.72l27.7,13.12A7.17,7.17,0,0,0,217.32,169ZM187,155.16a8.7,8.7,0,0,0,.16,5.08l-36.2-14.81c-6.84-6.36-8.79-12.56-9.31-15.48l47.13,22.3A6,6,0,0,0,187,155.16ZM82.39,119l60.29,24.67c.4,2.1,1.74,8.2,5.63,13L84.66,134.33c-8.5-3-15.26-10.66-17.29-22.3C74.13,115.93,77.33,116.9,82.39,119ZM70.64,131.09,146,157.55a23,23,0,0,0,6.23,12.51L88.7,150.88C80.48,148.42,74,142.53,70.64,131.09Zm12.8,20,67.46,20.3a24.5,24.5,0,0,0,6.27,12l-53.93-13.17C94.65,168.12,86.31,162.23,83.43,151.1Zm20.93,21,53.57,13.07a16.39,16.39,0,0,0,5.47,10.56h-.12L130.89,190C117.08,187.56,109.43,184.59,104.37,172.08Zm23.4,58.38c-.4-3.89,5.87-8.35,10.29-8.1l25.75,1.54a5.61,5.61,0,0,0-.61,2.56,7.24,7.24,0,0,0,1.37,4Zm39.15,0c-.81-.87-2-2.51-2-4a3.52,3.52,0,0,1,1.05-2.36l22.48,1.38a6.58,6.58,0,0,0-.49,2.2,7.3,7.3,0,0,0,.57,2.82Zm23.62,0a5,5,0,0,1-.89-2.77,3.6,3.6,0,0,1,.77-2.15l14.42.88-3.89,4Zm26.89,0H204.11L236.26,197a17.92,17.92,0,0,0,4.78-12.1,15.4,15.4,0,0,0-3.16-9.84,24.89,24.89,0,0,0-8.83-6.46l-83-39.26a28.94,28.94,0,0,1-8-21.78c7.1,5.8,10.79,9.19,16.85,12.17l77.65,38.21c17.65,8.66,22.8,31.84,9.43,46.19Z" transform="translate(-12 -12)"/></g></g></svg>